<?xml version="1.0" encoding="UTF-8" standalone="no"?>
<!-- Created with Inkscape (http://www.inkscape.org/) -->

<svg
   width="500mm"
   height="500mm"
   viewBox="0 0 500 500"
   version="1.1"
   id="svg5"
   inkscape:version="1.1.1 (3bf5ae0d25, 2021-09-20)"
   sodipodi:docname="blobRel.svg"
   xmlns:inkscape="http://www.inkscape.org/namespaces/inkscape"
   xmlns:sodipodi="http://sodipodi.sourceforge.net/DTD/sodipodi-0.dtd"
   xmlns="http://www.w3.org/2000/svg"
   xmlns:svg="http://www.w3.org/2000/svg">
  <sodipodi:namedview
     id="namedview7"
     pagecolor="#ffffff"
     bordercolor="#666666"
     borderopacity="1.0"
     inkscape:pageshadow="2"
     inkscape:pageopacity="0.0"
     inkscape:pagecheckerboard="0"
     inkscape:document-units="mm"
     showgrid="false"
     width="500mm"
     inkscape:zoom="0.52410025"
     inkscape:cx="778.47702"
     inkscape:cy="1277.4274"
     inkscape:window-width="1920"
     inkscape:window-height="1017"
     inkscape:window-x="1912"
     inkscape:window-y="-8"
     inkscape:window-maximized="1"
     inkscape:current-layer="layer1" />
  <defs
     id="defs2" />
  <g
     inkscape:label="Capa 1"
     inkscape:groupmode="layer"
     id="layer1">
    <path
       style="fill:none;stroke:#000000;stroke-width:0.479486px;stroke-linecap:butt;stroke-linejoin:miter;stroke-opacity:1"
       d="m 121.04949,456.62815 c -56.722324,26.53141 -63.776634,-15.21202 -65.60639,-23.4459"
       id="path1600"
       sodipodi:nodetypes="cc" />
    <path
       style="fill:none;stroke:#000000;stroke-width:0.479486px;stroke-linecap:butt;stroke-linejoin:miter;stroke-opacity:1"
       d="m 55.4431,433.18222 c -6.404125,-18.29752 24.103436,-117.54272 24.103436,-117.54272"
       id="path1844"
       sodipodi:nodetypes="cc" />
    <path
       style="fill:none;stroke:#000000;stroke-width:0.479486px;stroke-linecap:butt;stroke-linejoin:miter;stroke-opacity:1"
       d="m 79.546536,315.6395 c 0.914871,-38.88226 -26.531426,-29.27603 -26.531426,-29.27603"
       id="path2012"
       sodipodi:nodetypes="cc" />
    <path
       style="fill:none;stroke:#000000;stroke-width:0.479486px;stroke-linecap:butt;stroke-linejoin:miter;stroke-opacity:1"
       d="m 53.01511,286.36347 c -6.988141,1.99092 -14.232234,21.2783 -18.297532,21.95702"
       id="path2066"
       sodipodi:nodetypes="cc" />
    <path
       style="fill:none;stroke:#000000;stroke-width:0.479486px;stroke-linecap:butt;stroke-linejoin:miter;stroke-opacity:1"
       d="m 34.717578,308.32049 c -3.659498,1.37231 -5.489254,-5.0318 -5.489254,-5.0318 -2.287184,-7.31899 1.829756,-19.21241 1.829756,-19.21241"
       id="path2538"
       sodipodi:nodetypes="ccc" />
    <path
       style="fill:none;stroke:#000000;stroke-width:0.479486px;stroke-linecap:butt;stroke-linejoin:miter;stroke-opacity:1"
       d="m 31.05808,284.07628 c 21.499601,-33.85044 56.722337,-12.35084 62.211605,0.45744"
       id="path2706"
       sodipodi:nodetypes="cc" />
    <path
       style="fill:none;stroke:#000000;stroke-width:0.479486px;stroke-linecap:butt;stroke-linejoin:miter;stroke-opacity:1"
       d="m 93.269685,284.53372 c 12.350825,19.66984 -5.489268,71.36035 -5.489268,71.36035"
       id="path2950"
       sodipodi:nodetypes="cc" />
    <path
       style="fill:none;stroke:#000000;stroke-width:0.479486px;stroke-linecap:butt;stroke-linejoin:miter;stroke-opacity:1"
       d="m 87.780417,355.89407 c -5.031811,8.23389 -12.808264,64.04132 -12.808264,64.04132"
       id="path3440"
       sodipodi:nodetypes="cc" />
    <path
       style="fill:none;stroke:#000000;stroke-width:0.479486px;stroke-linecap:butt;stroke-linejoin:miter;stroke-opacity:1"
       d="m 74.972153,419.93539 c -0.457442,31.56323 26.531417,8.69135 26.531417,0.91492"
       id="path3494"
       sodipodi:nodetypes="cc" />
    <path
       style="fill:none;stroke:#000000;stroke-width:0.479486px;stroke-linecap:butt;stroke-linejoin:miter;stroke-opacity:1"
       d="m 101.50357,420.85031 c 9.70373,-182.43012 113.24716,-194.79195 113.24716,-194.79195"
       id="path3586"
       sodipodi:nodetypes="cc" />
    <path
       style="fill:none;stroke:#000000;stroke-width:0.479486px;stroke-linecap:butt;stroke-linejoin:miter;stroke-opacity:1"
       d="m 214.75073,226.05836 c 24.58278,-3.88149 25.058,-57.62605 27.81736,-58.54583"
       id="path3640"
       sodipodi:nodetypes="cc" />
    <path
       style="fill:none;stroke:#000000;stroke-width:0.479486px;stroke-linecap:butt;stroke-linejoin:miter;stroke-opacity:1"
       d="m 242.56809,167.51253 c 3.55802,-39.78529 58.86927,-84.422427 58.86927,-84.422427"
       id="path4074"
       sodipodi:nodetypes="cc" />
    <path
       style="fill:none;stroke:#000000;stroke-width:0.479486px;stroke-linecap:butt;stroke-linejoin:miter;stroke-opacity:1"
       d="m 301.43736,83.090103 c 4.20495,-2.264202 4.20497,2.264203 4.20497,2.264203"
       id="path4204"
       sodipodi:nodetypes="cc" />
    <path
       style="fill:none;stroke:#000000;stroke-width:0.479486px;stroke-linecap:butt;stroke-linejoin:miter;stroke-opacity:1"
       d="m 305.64233,85.354306 c 0,15.202504 -2.26418,19.730904 -2.26418,19.730904"
       id="path4334"
       sodipodi:nodetypes="cc" />
    <path
       style="fill:none;stroke:#000000;stroke-width:0.479486px;stroke-linecap:butt;stroke-linejoin:miter;stroke-opacity:1"
       d="m 303.37815,105.08521 c 1.07818,-0.10786 1.00241,-0.21562 3.23456,-0.32346"
       id="path4426"
       sodipodi:nodetypes="ccc" />
    <path
       style="fill:none;stroke:#000000;stroke-width:0.479486px;stroke-linecap:butt;stroke-linejoin:miter;stroke-opacity:1"
       d="m 306.61271,104.76175 c -1.69816,-12.614849 10.75496,-19.89264 10.75496,-19.89264"
       id="path4746"
       sodipodi:nodetypes="cc" />
    <path
       style="fill:none;stroke:#000000;stroke-width:0.479486px;stroke-linecap:butt;stroke-linejoin:miter;stroke-opacity:1"
       d="m 317.36767,84.86911 c 4.36668,-2.668524 3.31544,2.911122 3.31544,2.911122"
       id="path4876"
       sodipodi:nodetypes="cc" />
    <path
       style="fill:none;stroke:#000000;stroke-width:0.479486px;stroke-linecap:butt;stroke-linejoin:miter;stroke-opacity:1"
       d="m 320.68311,87.780232 c -0.61907,14.180008 -4.12407,17.493658 -4.60925,23.450668"
       id="path4968"
       sodipodi:nodetypes="cc" />
    <path
       style="fill:none;stroke:#000000;stroke-width:0.479486px;stroke-linecap:butt;stroke-linejoin:miter;stroke-opacity:1"
       d="m 316.07386,111.2309 c 24.44993,4.50735 32.712,17.1307 31.37537,30.2433"
       id="path5174"
       sodipodi:nodetypes="cc" />
    <path
       style="fill:none;stroke:#000000;stroke-width:0.479486px;stroke-linecap:butt;stroke-linejoin:miter;stroke-opacity:1"
       d="m 347.44923,141.4742 11.48275,11.15929"
       id="path5532" />
    <path
       style="fill:none;stroke:#000000;stroke-width:0.479486px;stroke-linecap:butt;stroke-linejoin:miter;stroke-opacity:1"
       d="m 358.93198,152.63349 c 8.57163,4.36669 -5.82223,18.11362 -7.11607,17.62844"
       id="path5534"
       sodipodi:nodetypes="cc" />
    <path
       style="fill:none;stroke:#000000;stroke-width:0.479486px;stroke-linecap:butt;stroke-linejoin:miter;stroke-opacity:1"
       d="m 351.81591,170.26193 c 2.78763,14.93642 -18.38321,12.29138 -24.42108,15.04078"
       id="path5740"
       sodipodi:nodetypes="cc" />
    <path
       style="fill:none;stroke:#000000;stroke-width:0.479486px;stroke-linecap:butt;stroke-linejoin:miter;stroke-opacity:1"
       d="m 327.39483,185.30271 c -15.36424,5.17532 -8.5716,27.97907 -8.5716,27.97907"
       id="path6174"
       sodipodi:nodetypes="cc" />
    <path
       style="fill:none;stroke:#000000;stroke-width:0.479486px;stroke-linecap:butt;stroke-linejoin:miter;stroke-opacity:1"
       d="m 318.82323,213.28178 c 23.61242,50.13594 -5.57965,111.5929 -5.57965,111.5929"
       id="path6266"
       sodipodi:nodetypes="cc" />
    <path
       style="fill:none;stroke:#000000;stroke-width:0.479486px;stroke-linecap:butt;stroke-linejoin:miter;stroke-opacity:1"
       d="m 313.24358,324.87468 c -0.64691,33.96306 -14.87905,86.68661 -11.96794,105.12371"
       id="path6358"
       sodipodi:nodetypes="cc" />
    <path
       style="fill:none;stroke:#000000;stroke-width:0.479486px;stroke-linecap:butt;stroke-linejoin:miter;stroke-opacity:1"
       d="m 301.27564,429.99839 c 1.29384,30.405 11.80619,22.64203 18.59882,25.55315"
       id="path6450"
       sodipodi:nodetypes="cc" />
    <path
       style="fill:none;stroke:#000000;stroke-width:0.479486px;stroke-linecap:butt;stroke-linejoin:miter;stroke-opacity:1"
       d="m 319.87446,455.55154 c 6.46915,3.23458 4.20496,13.58522 4.20496,13.58522"
       id="path6580"
       sodipodi:nodetypes="cc" />
    <path
       style="fill:none;stroke:#000000;stroke-width:0.479486px;stroke-linecap:butt;stroke-linejoin:miter;stroke-opacity:1"
       d="m 324.07942,469.13676 c -10.02718,8.4099 -37.52107,4.52844 -43.34332,-1.94072"
       id="path6634"
       sodipodi:nodetypes="cc" />
    <path
       style="fill:none;stroke:#000000;stroke-width:0.479486px;stroke-linecap:butt;stroke-linejoin:miter;stroke-opacity:1"
       d="m 280.7361,467.19603 c -2.2642,-3.55803 -8.73338,-96.71383 -13.2618,-90.8916"
       id="path6878"
       sodipodi:nodetypes="cc" />
    <path
       style="fill:none;stroke:#000000;stroke-width:0.479486px;stroke-linecap:butt;stroke-linejoin:miter;stroke-opacity:1"
       d="m 267.4743,376.30443 c -6.46914,21.67166 -25.22966,54.98782 -39.46181,65.98538"
       id="path7122"
       sodipodi:nodetypes="cc" />
    <path
       style="fill:none;stroke:#000000;stroke-width:0.479486px;stroke-linecap:butt;stroke-linejoin:miter;stroke-opacity:1"
       d="m 228.01249,442.2898 c 16.17289,0.6469 30.7285,4.52841 30.7285,4.52841"
       id="path7328"
       sodipodi:nodetypes="cc" />
    <path
       style="fill:none;stroke:#000000;stroke-width:0.479486px;stroke-linecap:butt;stroke-linejoin:miter;stroke-opacity:1"
       d="m 258.74099,446.81821 c 8.40991,3.88151 3.88149,14.55556 0,15.20248"
       id="path7458"
       sodipodi:nodetypes="cc" />
    <path
       style="fill:none;stroke:#000000;stroke-width:0.479486px;stroke-linecap:butt;stroke-linejoin:miter;stroke-opacity:1"
       d="m 258.74099,462.02069 c -9.05682,-1.6173 -7.11606,3.55802 -21.34821,0.97038"
       id="path7744"
       sodipodi:nodetypes="cc" />
    <path
       style="fill:none;stroke:#000000;stroke-width:0.479486px;stroke-linecap:butt;stroke-linejoin:miter;stroke-opacity:1"
       d="m 237.39278,462.99107 -11.96794,-2.58765"
       id="path7950" />
    <path
       style="fill:none;stroke:#000000;stroke-width:0.479486px;stroke-linecap:butt;stroke-linejoin:miter;stroke-opacity:1"
       d="m 225.42484,460.40342 c 0,5.82223 -1.61729,7.763 -8.08644,8.40992"
       id="path7952"
       sodipodi:nodetypes="cc" />
    <path
       style="fill:none;stroke:#000000;stroke-width:0.479486px;stroke-linecap:butt;stroke-linejoin:miter;stroke-opacity:1"
       d="m 217.3384,468.81334 c -4.52841,5.49877 -5.17533,2.58765 -25.22971,3.23457"
       id="path8044"
       sodipodi:nodetypes="cc" />
    <path
       style="fill:none;stroke:#000000;stroke-width:0.479486px;stroke-linecap:butt;stroke-linejoin:miter;stroke-opacity:1"
       d="m 192.10869,472.04791 c -30.08155,-1.29383 -52.62212,-0.54072 -71.0592,-15.41978"
       id="path8288"
       sodipodi:nodetypes="cc" />
  </g>
</svg>
